<?xml version="1.0" encoding="UTF-8"?>
<svg class="_ab6-" width="110.95" height="20.394" color="#262626" fill="#262626" aria-label="Instanext" role="img" version="1.1" viewBox="32 4 121.72 22.503" xmlns="http://www.w3.org/2000/svg">
 <g fill="#000">
  <g stroke-width=".74309">
   <path d="m43.117 18.683q-0.52248 2.3947-1.4659 3.759-0.92886 1.3643-2.3657 2.1044-1.4368 0.72567-3.2365 0.72567-1.4223 0-2.5253-0.68213-1.0885-0.68213-1.9448-2.0029l2.743-1.5384q0.4354 1.2191 1.045 1.8577 0.62408 0.63859 1.1611 0.63859 0.42089 0 0.6531-0.11611 0.24673-0.11611 0.46443-0.39186 0.23222-0.27576 0.4354-0.87081 0.2177-0.60956 0.4354-1.5965l1.4513-6.8794q0.49346-2.3367 1.0159-3.817 0.537-1.4804 1.3933-2.5108l-0.08708-0.15965q-1.9303 0-3.0188 0.20319-1.074 0.18867-1.582 0.63859-0.49346 0.44992-0.49346 1.2772 0 1.0014 0.71116 2.0754l-3.4107 1.4078q-0.47894-0.91435-0.60956-1.3352-0.13062-0.4354-0.13062-0.9724 0-0.33381 0.15965-0.78373 0.15965-0.44992 0.56602-1.0305 0.42089-0.59505 1.0305-1.132 0.60956-0.55151 1.4949-1.074t1.6836-0.78373q0.79824-0.27576 1.669-0.36284 0.87081-0.10159 2.6269-0.10159h2.4383l0.59505 1.0595q-0.24673 0.59505-0.46443 1.3497-0.20319 0.74018-0.52248 2.2351z"/>
   <path d="m45.097 14.341 0.47894-2.4673 3.193-1.4223h1.045c-0.91918 2.7672-1.5674 4.9249-1.9448 6.473h0.18868c2.6414-4.1121 5.0603-6.1682 7.2567-6.1682 0.78372 0 1.3788 0.21286 1.7852 0.63859s0.60956 1.0643 0.60956 1.9158c0 0.30962-0.06289 0.74986-0.18868 1.3207-0.11611 0.57086-0.41121 1.6594-0.88532 3.2655-0.358 1.1998-0.59505 2.0561-0.71116 2.5689-0.11611 0.50313-0.17416 0.89983-0.17416 1.1901 0 0.72567 0.23222 1.0885 0.69664 1.0885 0.23222 0 0.48862-0.06773 0.76921-0.20319 0.29027-0.14513 0.67246-0.42573 1.1466-0.84178 0.48378-0.41605 1.103-1.0111 1.8577-1.7852l1.103 1.0305c-0.65794 0.74502-1.2869 1.403-1.8867 1.9738-0.59989 0.56119-1.1369 1.0111-1.611 1.3497-0.46443 0.33865-0.90467 0.60956-1.3207 0.81275-0.40638 0.20319-0.78856 0.34348-1.1466 0.42089-0.34832 0.0774-0.73535 0.11611-1.1611 0.11611-0.73535 0-1.3352-0.2177-1.7997-0.6531-0.45475-0.44508-0.68213-1.0063-0.68213-1.6836 0-0.56119 0.0774-1.1998 0.23222-1.9158 0.16448-0.716 0.4354-1.6497 0.81275-2.8011 0.48378-1.4997 0.76921-2.4383 0.85629-2.8156 0.09676-0.38702 0.14514-0.716 0.14514-0.98691 0-0.26124-0.0774-0.47411-0.23222-0.63859-0.14514-0.16448-0.34832-0.24673-0.60956-0.24673-0.23222 0-0.44992 0.04838-0.6531 0.14513-0.30962 0.14514-0.64343 0.40154-1.0014 0.76921-0.57086 0.57086-1.2143 1.3933-1.9303 2.4673-0.46443 0.69664-0.90467 1.5626-1.3207 2.5979-0.40638 1.0256-0.895 2.4576-1.4659 4.296l-3.0333 1.4659h-1.1901c0.74502-2.6705 1.3836-5.0845 1.9158-7.2422s0.85629-4.0347 0.85629-4.0347z"/>
   <path d="m59.363 24.385q0.11611-1.5529 0.39186-2.2931h-0.14513l-3.2075 2.5108-0.9724-1.1756q6.3569-4.6153 8.0695-6.0666-0.81275-0.66762-1.2482-1.3352-0.42089-0.68213-0.42089-1.582 0-0.91435 0.68213-1.7852t1.8432-1.3933q1.1756-0.52248 2.4092-0.52248 0.85629 0 1.669 0.18867 0.82726 0.17416 1.9883 0.74018 0 0.69664-0.79824 1.7997-0.78372 1.0885-2.3657 2.6269 1.9158 1.2046 2.6995 2.2496 0.79824 1.0305 0.79824 2.3947 0 1.3497-0.82726 2.4528-0.82727 1.103-2.2351 1.7561-1.4078 0.63859-2.8446 0.63859-1.5384 0-2.8301-0.26124t-2.656-0.94337zm6.7197-9.1435q0.52248-0.40638 1.074-1.103 0.55151-0.71116 0.62408-1.0885-0.37735-0.33381-0.88532-0.52248-0.49346-0.18867-0.89983-0.18867-0.59505 0-0.95789 0.30478-0.34832 0.29027-0.34832 0.78372 0 0.52248 0.36284 0.94337 0.36284 0.40638 1.0305 0.87081zm-1.4513 3.0188q-1.4659 1.2191-3.3091 2.685 0.49346 1.3933 1.4513 2.1335t2.2496 0.74018q1.0595 0 1.7416-0.59505 0.69664-0.60956 0.69664-1.64 0-0.59505-0.2177-1.0305-0.2177-0.44992-0.82726-1.0014t-1.7852-1.2917z"/>
   <path d="m80.816 21.02c-1.0933 1.1998-2.0174 2.1286-2.7721 2.7866-0.7547 0.64827-1.4465 1.1272-2.0754 1.4368-0.62892 0.29994-1.2723 0.44992-1.9303 0.44992-0.89983 0-1.5723-0.2564-2.0174-0.76921-0.44508-0.51281-0.66762-1.3256-0.66762-2.4383 0-0.67729 0.15481-1.6062 0.46443-2.7866 0.30962-1.1901 0.70148-2.477 1.1756-3.8606l-0.99218 3.2152-3.3772 3.8003-0.08634-0.99031 3.8399-4.3041 1.0367-4.4496c-1.2385 0-2.2738 0.01451-3.1059 0.04354l0.11611-0.66762c0.14513-0.18384 0.40154-0.41121 0.76921-0.68213 0.36767-0.27092 0.63375-0.42573 0.79824-0.46443h2.0609c0.12578-0.96756 0.36767-1.9496 0.72567-2.9462 0.62892-0.72567 1.2288-1.2917 1.7997-1.6981 0.58054-0.40638 1.0595-0.60956 1.4368-0.60956h1.3498c0 0.55151-0.09676 1.1611-0.29027 1.8287-0.19351 0.66762-0.60956 1.8287-1.2482 3.4832 1.4804-0.0387 2.6027-0.13062 3.3671-0.27575 0.76437-0.14514 1.5433-0.44508 2.3367-0.89983l0.69665 0.84178c-0.58054 0.68697-1.0788 1.1804-1.4949 1.4804-0.40637 0.29994-0.76921 0.48862-1.0885 0.56602h-4.3976c-0.64827 2.177-1.1466 4.0154-1.4949 5.5151-0.33865 1.4997-0.50797 2.5592-0.50797 3.1784 0 0.32897 0.04838 0.58054 0.14513 0.7547 0.10643 0.17416 0.28059 0.26124 0.52248 0.26124 0.45476 0 0.98208-0.24189 1.582-0.72567 0.60956-0.48378 1.3497-1.1853 2.2206-2.1044z"/>
   <path d="m94.719 9.9156h0.84178q-0.47894 1.1611-0.92886 2.4528-0.4354 1.2772-0.92886 2.8301-0.47894 1.5529-0.85629 3.0623-0.36284 1.4949-0.46443 2.1915-0.1016 0.68213-0.1016 1.2482 0 0.94337 0.66762 0.94337 0.63859 0 1.4368-0.62408 0.81275-0.62408 2.3657-2.206l1.103 1.0305q-2.206 2.4383-3.8315 3.5558-1.611 1.1175-2.9607 1.1175-1.1175 0-1.6836-0.537-0.56603-0.55151-0.56603-1.6981 0-1.3643 0.59506-3.2365h-0.24673q-1.8432 2.7866-3.5703 4.1363-1.7126 1.3352-3.4397 1.3352-1.4078 0-2.177-0.89983-0.76921-0.91435-0.76921-2.3802 0-1.8577 0.98691-3.9912 1.0014-2.1335 2.6995-3.8606 1.6981-1.7416 3.817-2.7285 2.1335-1.0014 3.5848-1.0014 0.52249 0 1.1756 0.15965 0.66762 0.15965 1.103 0.4354zm-3.8316 2.8156-1.074 0.52248q-0.55151-0.4354-1.2046-0.4354-0.66762 0-1.3207 0.40638-0.95788 0.60956-1.8867 1.9013-1.045 1.4368-1.669 3.1204-0.60957 1.6836-0.60957 2.9462 0 0.7547 0.24673 1.1756 0.24673 0.40638 0.78372 0.40638 0.71116 0 1.4804-0.56602 0.76922-0.58054 1.6836-1.7561 0.92886-1.1756 1.5674-2.3947 0.63859-1.2336 1.1175-2.685z"/>
  </g>
  <path d="m106.62 19.867c0.0338-0.49399 0.0931-1.1383 0.17768-1.933 0.0931-0.80542 0.2623-1.933 0.50768-3.3828l0.81227-4.8486c0.31307-1.8793 0.84612-3.2969 1.5992-4.2526s1.7007-1.4336 2.843-1.4336c0.86304 0 1.6034 0.23626 2.2211 0.70877 0.61767 0.46178 1.2057 1.2189 1.7642 2.2713l-2.3988 1.7075c-0.24537-0.86985-0.54152-1.5464-0.88843-2.0297-0.3469-0.49399-0.68535-0.74099-1.0153-0.74099-0.35537 0-0.63459 0.10739-0.83765 0.32217-0.19461 0.20404-0.36384 0.53695-0.50768 0.99872-0.13538 0.46178-0.28345 1.192-0.44421 2.1907l-2.5384 15.319-2.8049 1.7397h-0.83766c-1.3876-7.0877-2.6399-12.532-3.7568-16.334l-0.17769 0.03222c-0.13538 1.192-0.34268 2.631-0.6219 4.3171l-1.0026 6.0407c-0.12692 0.78394-0.3046 1.541-0.53305 2.2713-0.21999 0.71951-0.50767 1.3531-0.86304 1.9008-0.34691 0.54769-0.7742 0.98261-1.2819 1.3048l-0.69804-1.7236c0.1946-0.18256 0.36383-0.48862 0.50767-0.91818 0.14384-0.42956 0.28345-1.0417 0.41883-1.8364l1.3961-8.3442c0.25384-1.5035 0.49499-2.7008 0.72344-3.5922 0.23691-0.90207 0.48651-1.6538 0.74881-2.2552-0.19461-0.22552-0.39344-0.39197-0.59651-0.49936-0.20307-0.10739-0.42729-0.16108-0.67267-0.16108-0.3046 0-0.57959 0.059064-0.82497 0.17719-0.24537 0.10739-0.52459 0.31143-0.83766 0.61212-0.3046 0.28995-0.66843 0.7034-1.0915 1.2403l-1.028-1.2726c0.71921-0.91281 1.3284-1.6055 1.8276-2.078 0.50768-0.47251 1.0238-0.82153 1.5484-1.047 0.5246-0.22552 1.1677-0.33828 1.9291-0.33828 0.5669 0 1.0492 0.080542 1.4469 0.24163 0.39768 0.16108 0.76151 0.39734 1.0915 0.70877 0.32999 0.31143 0.65998 0.76783 0.98996 1.3692 0.32999 0.59064 0.66421 1.439 1.0026 2.5451 0.48229 1.5894 0.93074 3.2969 1.3453 5.1225 0.4146 1.8256 0.81228 3.7855 1.193 5.8796z" stroke-width=".73208"/>
  <path d="m147.85 6.2616c-0.37344 0-0.84791 0.20128-1.4224 0.60345-0.56494 0.40216-1.1578 0.96288-1.7802 1.681-0.35428 0.98626-0.59319 1.9584-0.71767 2.9159h-2.041c-0.16278 0.0383-0.42492 0.19094-0.78879 0.45905-0.36386 0.26811-0.61714 0.49264-0.76077 0.67457l-0.11638 0.66164c0.82348-0.02873 1.8498-0.0431 3.0754-0.0431l0.0862 0.14224c-2.3662 3.0133-4.5011 6.3431-7.3254 8.8858-0.54579 0.43089-1.0435 0.64655-1.4935 0.64655-0.10534 0-0.21148-0.01989-0.31681-0.05818-0.0958-0.0383-0.19642-0.11906-0.30173-0.24353-0.1053-0.12449-0.2059-0.30252-0.3017-0.53233-0.0957-0.22981-0.18751-0.53509-0.27371-0.9181-0.0765-0.39259-0.14841-0.87255-0.21551-1.4375-0.067-0.56495-0.11903-1.2385-0.15733-2.0237 0.61282-0.76603 1.1503-1.4185 1.6099-1.9547 0.46918-0.5458 0.8375-0.94836 1.1056-1.2069 0.27769-0.25854 0.50772-0.43993 0.68965-0.54526 0.19151-0.10533 0.3729-0.15733 0.54526-0.15733 0.30641 0 0.52543 0.11502 0.65948 0.34483 0.14345 0.22981 0.2407 0.64124 0.2888 1.2349h1.1767c0.27768-0.40217 0.52761-0.94851 0.74784-1.6379 0.2298-0.699 0.4057-1.4013 0.53018-2.1099-0.30641-0.22981-0.6172-0.38796-0.93319-0.47414-0.31597-0.09575-0.69315-0.1444-1.1336-0.1444-0.24897 0-0.49002 0.02875-0.71983 0.08621-0.22023 0.04788-0.46249 0.15403-0.7306 0.31681-0.26812 0.1532-0.58441 0.39762-0.94828 0.73276-0.35427 0.33514-0.7801 0.7897-1.278 1.3642-0.48834 0.56495-1.0689 1.2872-1.7392 2.1681h-0.1444c-0.10531-1.6948-0.2237-2.834-0.35776-3.4181-0.13404-0.59367-0.29771-0.99624-0.48922-1.2069 0 0-1.4095-0.22869-1.8599 0.02371-4.1913 3.7367-6.0454 8.4233-12.584 11.313-0.66296 0.28413-1.6083 0.59133-2.5388 0.48491-0.70857 0-1.2151-0.17588-1.5216-0.53017-0.30641-0.36387-0.46121-0.9622-0.46121-1.7953 0-0.22023 0.0144-0.45914 0.0431-0.71767 0.0383-0.26811 0.0814-0.48042 0.12931-0.63362 1.8576-0.18193 3.4823-0.55359 4.8707-1.1185 1.3884-0.56495 2.4447-1.2551 3.1724-2.069 0.7373-0.82348 1.1078-1.6895 1.1078-2.5991 0-0.7756-0.24441-1.3883-0.73275-1.8384-0.48835-0.45962-1.1984-0.68966-2.1272-0.68966-1.082 0-2.1836 0.25879-3.3039 0.77586-1.1107 0.51707-2.2444 1.3289-3.403 2.4397-1.1586 1.1012-2.05 2.2746-2.6724 3.5194-0.6224 1.2448-0.93319 2.4813-0.93319 3.7069 0 1.398 0.37381 2.4564 1.1207 3.1746 0.75645 0.71815 1.8491 1.0754 3.2759 1.0754 1.4554 0 2.839-0.41143 4.1509-1.2349 4.2777-3.0038 7.5828-7.3228 11.308-10.558 0.15318 0.41174 0.31135 1.0532 0.47414 1.9246s0.30657 1.8634 0.43104 2.9741c-0.61284 0.7373-1.1769 1.3843-1.694 1.9397-0.50752 0.5458-0.94433 0.96058-1.3082 1.2478s-0.66914 0.47968-0.9181 0.57543c-0.2394 0.09575-0.47494 0.1444-0.70474 0.1444-0.17234 0-0.32499-0.04865-0.45905-0.1444-0.13404-0.10532-0.23473-0.26899-0.30173-0.48922h-0.51724c-0.59365 0.40216-1.2119 1.4462-1.8534 3.1315l-0.028 0.20043c0.19151 0.13406 0.47357 0.24021 0.84698 0.31681 0.37347 0.0766 0.70961 0.11422 1.0065 0.11422 0.46918 0 0.88951-0.06637 1.2629-0.20043 0.38303-0.12448 0.78222-0.34901 1.194-0.67457 0.41173-0.33514 0.89505-0.8151 1.4504-1.4375 0.56494-0.63197 1.2783-1.5301 2.1401-2.6983h0.22845c0.067 1.3406 0.19307 2.3537 0.375 3.0431 0.18193 0.67985 0.45296 1.1775 0.81681 1.4935 0.36389 0.31599 0.88146 0.47414 1.5517 0.47414 5.0616-1.5094 7.2876-6.026 9.8685-9.847l0.0991 0.03017c-0.46919 1.3693-0.85738 2.6412-1.1638 3.819-0.30641 1.1682-0.45905 2.0883-0.45905 2.7586-1e-5 1.1012 0.22116 1.9063 0.66163 2.4138s1.1052 0.76078 1.9957 0.76078c0.65114 0 1.2892-0.14928 1.9116-0.44612 0.6224-0.30641 1.307-0.77871 2.0539-1.4203 0.74688-0.65112 1.6594-1.5713 2.7414-2.7586l-1.0905-1.0194c-0.86178 0.90966-1.595 1.6031-2.1983 2.0819-0.59368 0.47877-1.1146 0.71767-1.5647 0.71767-0.23938 0-0.41191-0.08627-0.51724-0.25862-0.0958-0.17236-0.1444-0.42013-0.1444-0.74569 0-0.61282 0.16917-1.6624 0.50431-3.1466 0.34471-1.4842 0.8369-3.3024 1.4784-5.4569h4.3513c0.316-0.0766 0.67542-0.26351 1.0776-0.56034 0.41173-0.29684 0.90607-0.78567 1.4806-1.4655l-0.68965-0.8319c-0.78518 0.45004-1.556 0.74646-2.3125 0.89009-0.75645 0.14363-1.8669 0.23325-3.3319 0.27155 0.63197-1.6374 1.0434-2.7854 1.2349-3.4461 0.19146-0.6607 0.28663-1.2645 0.28663-1.8103zm-29.795 6.6897c0.43089 0 0.77044 0.1294 1.0194 0.38793 0.24895 0.24896 0.375 0.56862 0.375 0.96121 0 0.44047-0.14378 0.84303-0.43104 1.2069-0.27768 0.36386-0.7665 0.66914-1.4655 0.9181-0.68943 0.23938-1.6129 0.3798-2.7716 0.4181-0.18193 0.05745-0.40862 0.20458-0.67673 0.44396-0.25853 0.22981-0.51518 0.514-0.77371 0.84914 0.55537-1.6565 1.2488-2.9361 2.0819-3.8362 0.84263-0.90008 1.723-1.3491 2.6422-1.3491z" stroke-width=".73538"/>
 </g>
</svg>
