<?xml version="1.0" encoding="UTF-8"?>
<!-- Created with Inkscape (http://www.inkscape.org/) -->
<svg width="41.281mm" height="41.281mm" version="1.1" viewBox="0 0 41.281 41.281" xmlns="http://www.w3.org/2000/svg" xmlns:xlink="http://www.w3.org/1999/xlink">
 <defs>
  <linearGradient id="linearGradient2388" x1="122.48" x2="172.46" y1="177" y2="115.25" gradientTransform="matrix(2.5769 0 0 2.5585 -307.58 -216.89)" gradientUnits="userSpaceOnUse">
   <stop stop-color="#feda75" offset="0"/>
   <stop stop-color="#fa7e1e" offset=".244"/>
   <stop stop-color="#d62976" offset=".57477"/>
   <stop stop-color="#962fbf" offset=".7884"/>
   <stop stop-color="#4f5bd5" offset="1"/>
  </linearGradient>
 </defs>
 <g transform="translate(-80.15 -53.3)">
  <g transform="matrix(.25526 0 0 .25526 83.514 33.944)" stroke-linecap="round" stroke-linejoin="round">
   <circle cx="67.682" cy="156.69" r="80.862" fill="#fff" stroke-width="2.9782"/>
   <path d="m64.838 75.827c-1.1884-1e-3 -2.088 0.01056-2.4162 0.04395l-1e-3 0.0012c-0.34812 0.03191-1.4551 0.14219-2.4515 0.22176-22.981 2.0838-44.506 14.555-58.14 33.723-7.5916 10.658-12.447 22.748-14.281 35.553-0.64849 4.4699-0.72837 5.7891-0.72837 11.85 0 6.0606 0.0797 7.381 0.72837 11.851 4.3968 30.558 26.017 56.232 55.34 65.744 3.5589 1.1536 7.2545 2.0537 11.223 2.7351h27.225c8.3984-1.449 15.883-3.9465 23.282-7.7454 1.3918-0.71583 1.6606-0.90676 1.4709-1.0658-0.12627-0.0957-6.0573-8.0966-13.174-17.768l-12.938-17.578-16.212-24.131c-8.9202-13.267-16.259-24.114-16.323-24.114-0.0632-0.0148-0.12661 10.705-0.15801 23.797-0.0473 22.922-0.0631 23.845-0.34777 24.386-0.41118 0.77946-0.7277 1.0976-1.3919 1.4475-0.50614 0.25469-0.9484 0.30229-3.3366 0.30229h-2.7367l-0.72721-0.46121c-0.47446-0.30227-0.82233-0.70052-1.0596-1.1618l-0.33224-0.71608 0.0318-31.893 0.0469-31.909 0.49029-0.62125c0.25289-0.33421 0.79077-0.76305 1.1704-0.96982 0.64845-0.31824 0.90219-0.34982 3.6384-0.34982 3.2265 0 3.7642 0.12656 4.6024 1.0492 0.23701 0.25437 9.0147 13.553 19.517 29.572 10.502 16.018 24.863 37.891 31.917 48.628l12.811 19.518 0.64828-0.43036c5.7412-3.7541 11.814-9.098 16.622-14.665 10.233-11.819 16.828-26.232 19.043-41.598 0.38502-2.6542 0.56677-4.209 0.6529-6.2941v-11.114c-0.0864-2.0844-0.26807-3.6392-0.6529-6.293-4.3969-30.558-26.017-56.232-55.34-65.744-5.1719-1.6862-10.675-2.8473-16.843-3.5472-1.1388-0.11916-7.3039-0.248-10.869-0.25119zm27.429 48.943c2.3408 0 2.751 0.0319 3.273 0.31895 0.75916 0.38176 1.3768 1.1132 1.5982 1.8768 0.12661 0.41358 0.1573 9.2582 0.12627 29.19l-0.0469 28.601-5.0138-7.7311-5.0291-7.7311v-20.79c0-13.442 0.0631-20.998 0.15766-21.364 0.25289-0.89081 0.80604-1.59 1.5652-2.0036 0.64848-0.3342 0.88653-0.36636 3.3697-0.36636z" fill="url(#linearGradient2388)" stroke-width="6.7937"/>
  </g>
 </g>
</svg>
